<?xml version="1.0" encoding="UTF-8" standalone="no"?>
<!DOCTYPE svg PUBLIC "-//W3C//DTD SVG 1.1//EN" "http://www.w3.org/Graphics/SVG/1.1/DTD/svg11.dtd">
<svg width="100%" height="100%" viewBox="0 0 724 724" version="1.1" xmlns="http://www.w3.org/2000/svg" xmlns:xlink="http://www.w3.org/1999/xlink" xml:space="preserve" xmlns:serif="http://www.serif.com/" style="fill-rule:evenodd;clip-rule:evenodd;stroke-linecap:round;stroke-linejoin:round;stroke-miterlimit:1.5;">
    <g transform="matrix(1,0,0,1,-781.113,0)">
        <g id="mapView" transform="matrix(1.03541,0,0,0.885125,1767.36,-373.869)">
            <rect x="-952.52" y="422.392" width="698.712" height="817.343" style="fill:none;"/>
            <g id="simpleSwitzerland" transform="matrix(0.744769,0,0,0.87122,-874.349,548.83)">
                <path d="M42.166,587.227C42.166,587.227 26.547,553.404 64.328,505.719C102.11,458.033 92.431,440.914 114.71,422.065C136.99,403.216 170.551,383.624 175.337,367.154C180.123,350.684 148.94,345.417 175.575,326.222C202.211,307.027 190.184,303.581 190.184,303.581C190.184,303.581 220.527,306.446 228.271,310.482C236.014,314.518 232.453,331.622 243.053,324.978C253.653,318.333 267.299,289.586 279.644,289.96C291.99,290.334 313.99,304.197 321.133,299.452C328.275,294.707 344.373,286.756 352.375,285.598C360.378,284.439 374.868,304.104 381.631,296.748C388.393,289.392 377.653,279.554 384.947,268.893C392.242,258.231 397.371,252.463 416.839,253.157C436.307,253.852 439.534,262.515 449.279,270.506C459.024,278.497 450.297,293.013 465.807,286.969C481.317,280.926 487.982,275.034 501.783,283.931C515.584,292.827 524.883,309.956 536.241,311.772C547.6,313.588 566.927,312.717 565.865,332.086C564.802,351.456 540.303,360.248 543.898,373.746C547.493,387.243 547.44,399.133 568.541,401.688C589.642,404.243 596.045,413.966 608.809,425.895C621.573,437.825 629.55,442.027 639.824,427.655C650.098,413.283 659.612,401.902 666.313,410.877C673.014,419.852 688.378,425.877 682.243,445.54C675.651,466.667 670.136,478.073 677.998,481.862C685.86,485.651 694.093,500.76 685.838,508.149C677.582,515.539 659.941,520.469 653.195,514.926C646.449,509.383 622.492,493.075 627.912,504.906C633.331,516.737 628.277,523.98 635.36,530.408C642.444,536.837 635.102,547.993 639.653,557.606C644.203,567.219 647.93,583.75 635.172,583.227C622.414,582.704 604.874,580.886 603.671,571.596C602.468,562.306 598.417,540.775 589.052,550.871C579.686,560.968 567.993,572.189 557.106,568.4C546.22,564.611 547.971,562.48 537.537,548.103C527.103,533.725 520.548,523.328 519.267,530.378C517.985,537.427 528.32,552.01 517.988,567.894C507.655,583.778 487.243,584.121 488.471,599.671C489.699,615.22 478.217,621.795 482.326,633.482C486.436,645.17 503.411,655.629 484.806,662.642C466.201,669.655 452.166,669.239 454.898,658.119C457.63,647 454.311,640.375 446.634,633.17C438.958,625.966 436.158,622.065 439.914,613.655C443.669,605.245 435.363,605.028 423.2,600.798C411.038,596.567 401.34,587.247 396.236,582.446C391.131,577.645 385.459,576.72 387.393,560.861C389.327,545.002 384.298,530.808 381.431,536.896C378.564,542.984 368.813,557.671 364.777,565.856C360.74,574.041 359.807,577.518 357.052,590.327C354.298,603.136 351.684,609.059 339.029,619.844C326.375,630.629 337.157,640.24 312.017,643.905C286.877,647.57 284.816,629.457 268.84,634.514C252.863,639.571 243.694,648.343 231.7,650.696C219.706,653.049 207.355,659.505 197.107,648.147C186.858,636.788 171.005,617.958 165.695,603.288C160.386,588.618 150.562,581.822 153.873,567.607C157.184,553.393 151.363,528.25 138.638,530.394C125.913,532.539 104.262,536.985 101.811,542.739C99.36,548.493 68.824,545.723 73.216,570.712C76.565,589.775 68.364,601.391 57.067,597.557C45.771,593.723 42.166,587.227 42.166,587.227Z" style="fill:rgb(132,132,132);"/>
            </g>
            <g id="pointer" transform="matrix(1.43898,0,0,1.59369,-1105.88,190.323)">
                <path d="M349.356,476.535C349.356,476.535 443.461,358.876 443.461,308.451C443.461,256.514 401.294,214.347 349.356,214.347C297.418,214.347 255.251,256.514 255.251,308.451C255.251,358.876 349.356,476.535 349.356,476.535ZM349.356,248.246C377.587,248.246 400.507,271.166 400.507,299.397C400.507,327.628 377.587,350.548 349.356,350.548C321.125,350.548 298.205,327.628 298.205,299.397C298.205,271.166 321.125,248.246 349.356,248.246Z" style="stroke:black;stroke-width:8.27px;"/>
            </g>
        </g>
    </g>
</svg>
